<svg id="svg" version="1.1" xmlns="http://www.w3.org/2000/svg" xmlns:xlink="http://www.w3.org/1999/xlink" width="400" height="400" viewBox="0, 0, 400,400"><g id="svgg"><path id="path0" d="M46.833 87.560 C 46.833 87.620,47.377 88.421,48.042 89.341 C 50.648 92.947,51.377 93.997,54.570 98.750 C 56.460 101.565,57.333 102.775,56.913 102.000 C 56.588 101.399,51.475 93.881,50.019 91.862 C 49.138 90.640,48.306 89.477,48.172 89.278 C 47.639 88.492,46.833 87.458,46.833 87.560 M57.422 103.000 C 58.664 105.022,60.704 108.167,60.774 108.167 C 60.871 108.167,60.941 108.284,59.028 105.250 C 58.161 103.875,57.341 102.638,57.206 102.500 C 57.072 102.362,57.169 102.587,57.422 103.000 M61.146 108.947 C 61.338 109.330,61.586 109.700,61.696 109.768 C 61.807 109.836,61.721 109.598,61.505 109.238 C 60.942 108.297,60.737 108.131,61.146 108.947 M62.210 110.667 C 62.440 111.079,63.131 112.279,63.746 113.333 C 65.082 115.622,66.741 118.535,67.495 119.917 C 68.096 121.017,68.545 121.595,68.078 120.667 C 67.839 120.193,66.297 117.445,64.664 114.583 C 63.366 112.309,62.116 110.221,61.969 110.083 C 61.872 109.992,61.980 110.254,62.210 110.667 M68.362 121.458 C 68.681 122.157,69.690 124.000,69.754 124.000 C 69.800 124.000,69.535 123.400,69.167 122.667 C 68.798 121.933,68.453 121.333,68.401 121.333 C 68.348 121.333,68.331 121.390,68.362 121.458 M71.933 128.374 C 73.488 131.506,73.855 132.183,73.525 131.315 C 73.261 130.621,70.506 125.167,70.419 125.167 C 70.375 125.167,71.056 126.610,71.933 128.374 M73.675 131.858 C 73.670 131.918,74.106 132.893,74.643 134.025 C 75.181 135.157,75.944 136.833,76.340 137.750 C 76.993 139.263,77.580 140.347,77.197 139.333 C 76.588 137.720,73.696 131.582,73.675 131.858 M77.345 139.917 C 77.345 140.008,77.452 140.271,77.583 140.500 C 77.714 140.729,77.822 140.842,77.822 140.750 C 77.822 140.658,77.714 140.396,77.583 140.167 C 77.452 139.938,77.345 139.825,77.345 139.917 M78.167 141.893 C 78.167 142.098,79.214 144.508,79.276 144.446 C 79.309 144.413,79.109 143.835,78.831 143.162 C 78.348 141.990,78.167 141.643,78.167 141.893 M79.431 145.000 C 79.492 145.229,79.647 145.604,79.777 145.833 L 80.012 146.250 79.902 145.833 C 79.841 145.604,79.686 145.229,79.556 145.000 L 79.321 144.583 79.431 145.000 M80.096 146.667 C 80.157 146.896,80.276 147.196,80.361 147.333 C 80.469 147.507,80.482 147.456,80.404 147.167 C 80.343 146.938,80.224 146.637,80.139 146.500 C 80.031 146.326,80.018 146.377,80.096 146.667 M80.500 147.716 C 80.500 147.929,81.201 149.687,81.262 149.627 C 81.297 149.592,81.171 149.155,80.981 148.657 C 80.651 147.787,80.500 147.491,80.500 147.716 M81.338 149.861 C 81.336 149.922,81.812 151.350,82.397 153.034 C 83.412 155.954,85.098 161.265,85.500 162.808 C 85.604 163.207,85.722 163.500,85.764 163.458 C 85.888 163.334,84.743 159.530,83.142 154.750 C 81.785 150.695,81.354 149.527,81.338 149.861 M85.862 163.833 C 85.870 164.266,86.133 164.978,86.138 164.583 C 86.141 164.400,86.079 164.100,86.000 163.917 C 85.912 163.712,85.859 163.680,85.862 163.833 M86.437 166.000 C 86.496 166.321,86.609 166.733,86.689 166.917 C 86.789 167.145,86.802 167.067,86.729 166.667 C 86.671 166.346,86.558 165.933,86.478 165.750 C 86.377 165.521,86.365 165.600,86.437 166.000 M87.028 168.250 C 87.026 168.433,87.088 168.733,87.167 168.917 C 87.349 169.341,87.349 168.903,87.167 168.333 C 87.059 167.998,87.032 167.982,87.028 168.250 M84.539 189.833 C 84.539 190.154,84.573 190.285,84.615 190.125 C 84.657 189.965,84.657 189.702,84.615 189.542 C 84.573 189.381,84.539 189.512,84.539 189.833 M84.379 192.333 C 84.379 192.746,84.411 192.915,84.451 192.708 C 84.491 192.502,84.491 192.165,84.451 191.958 C 84.411 191.752,84.379 191.921,84.379 192.333 M84.241 200.000 C 84.241 202.796,84.263 203.940,84.291 202.542 C 84.319 201.144,84.319 198.856,84.291 197.458 C 84.263 196.060,84.241 197.204,84.241 200.000 M84.381 207.583 C 84.382 208.042,84.415 208.209,84.453 207.956 C 84.491 207.703,84.490 207.328,84.451 207.123 C 84.411 206.918,84.380 207.125,84.381 207.583 M84.539 210.167 C 84.539 210.487,84.573 210.619,84.615 210.458 C 84.657 210.298,84.657 210.035,84.615 209.875 C 84.573 209.715,84.539 209.846,84.539 210.167 M291.708 271.456 C 292.144 271.490,292.856 271.490,293.292 271.456 C 293.727 271.422,293.371 271.393,292.500 271.393 C 291.629 271.393,291.273 271.422,291.708 271.456 M295.458 271.622 C 295.848 271.657,296.485 271.657,296.875 271.622 C 297.265 271.587,296.946 271.558,296.167 271.558 C 295.387 271.558,295.069 271.587,295.458 271.622 M299.250 271.832 C 300.301 271.971,302.438 272.044,302.319 271.938 C 302.281 271.904,301.350 271.837,300.250 271.789 C 298.908 271.730,298.579 271.744,299.250 271.832 M303.455 272.120 C 303.750 272.157,304.275 272.158,304.621 272.122 C 304.967 272.086,304.725 272.055,304.083 272.055 C 303.442 272.054,303.159 272.083,303.455 272.120 M306.833 272.339 C 307.429 272.406,308.292 272.458,308.750 272.455 C 309.537 272.450,309.523 272.442,308.500 272.327 C 307.904 272.260,307.042 272.208,306.583 272.212 C 305.796 272.217,305.810 272.224,306.833 272.339 M310.292 272.618 C 310.498 272.657,310.835 272.657,311.042 272.618 C 311.248 272.578,311.079 272.545,310.667 272.545 C 310.254 272.545,310.085 272.578,310.292 272.618 M312.627 272.785 C 312.834 272.824,313.134 272.823,313.294 272.781 C 313.453 272.739,313.283 272.707,312.917 272.709 C 312.550 272.711,312.420 272.745,312.627 272.785 M313.681 272.897 C 313.719 272.932,314.575 273.000,315.583 273.048 C 316.885 273.111,317.127 273.098,316.417 273.003 C 315.349 272.860,313.565 272.791,313.681 272.897 M318.042 273.282 C 318.202 273.323,318.465 273.323,318.625 273.282 C 318.785 273.240,318.654 273.205,318.333 273.205 C 318.012 273.205,317.881 273.240,318.042 273.282 M319.181 273.397 C 319.219 273.431,319.925 273.500,320.750 273.550 C 321.855 273.617,322.030 273.604,321.417 273.501 C 320.548 273.357,319.060 273.287,319.181 273.397 M324.377 273.953 C 324.631 273.991,325.006 273.990,325.211 273.951 C 325.416 273.911,325.208 273.880,324.750 273.881 C 324.292 273.882,324.124 273.915,324.377 273.953 M326.125 274.118 C 326.331 274.157,326.669 274.157,326.875 274.118 C 327.081 274.078,326.912 274.045,326.500 274.045 C 326.087 274.045,325.919 274.078,326.125 274.118 M329.583 274.508 C 330.042 274.579,330.679 274.634,331.000 274.630 C 331.472 274.624,331.424 274.597,330.750 274.492 C 330.292 274.421,329.654 274.366,329.333 274.370 C 328.861 274.376,328.909 274.403,329.583 274.508 M332.127 274.785 C 332.334 274.824,332.634 274.823,332.794 274.781 C 332.953 274.739,332.783 274.707,332.417 274.709 C 332.050 274.711,331.920 274.745,332.127 274.785 M333.460 274.951 C 333.668 274.991,333.968 274.990,334.127 274.948 C 334.286 274.906,334.117 274.874,333.750 274.875 C 333.383 274.877,333.253 274.911,333.460 274.951 M336.638 275.326 C 336.943 275.401,337.768 275.504,338.472 275.554 C 339.380 275.619,339.533 275.607,339.000 275.512 C 337.852 275.309,335.971 275.160,336.638 275.326 M341.292 275.951 C 341.498 275.991,341.835 275.991,342.042 275.951 C 342.248 275.911,342.079 275.879,341.667 275.879 C 341.254 275.879,341.085 275.911,341.292 275.951 M342.794 276.118 C 343.001 276.158,343.301 276.156,343.460 276.115 C 343.620 276.073,343.450 276.040,343.083 276.042 C 342.717 276.044,342.586 276.078,342.794 276.118 M345.127 276.451 C 345.334 276.491,345.634 276.490,345.794 276.448 C 345.953 276.406,345.783 276.374,345.417 276.375 C 345.050 276.377,344.920 276.411,345.127 276.451 M346.460 276.618 C 346.668 276.658,346.968 276.656,347.127 276.615 C 347.286 276.573,347.117 276.540,346.750 276.542 C 346.383 276.544,346.253 276.578,346.460 276.618 M347.975 276.824 C 348.282 276.902,349.032 277.006,349.642 277.056 C 350.460 277.124,350.575 277.112,350.083 277.011 C 349.099 276.808,347.269 276.646,347.975 276.824 M352.083 277.425 C 352.725 277.547,353.475 277.643,353.750 277.638 C 354.025 277.634,353.688 277.532,353.000 277.411 C 352.313 277.291,351.563 277.195,351.333 277.198 C 351.104 277.201,351.442 277.304,352.083 277.425 M354.808 277.833 C 355.116 277.905,355.866 278.005,356.475 278.054 L 357.583 278.142 356.333 277.915 C 354.943 277.662,353.833 277.602,354.808 277.833 M358.333 278.340 C 358.654 278.416,359.404 278.517,360.000 278.565 L 361.083 278.651 359.750 278.421 C 358.289 278.170,357.407 278.119,358.333 278.340 M115.326 279.042 C 115.735 279.477,116.091 279.833,116.118 279.833 C 116.243 279.833,116.111 279.684,115.375 278.993 L 114.583 278.250 115.326 279.042 M361.529 278.822 C 361.774 278.900,362.449 279.006,363.029 279.058 C 363.829 279.129,363.922 279.118,363.417 279.013 C 362.344 278.790,361.008 278.655,361.529 278.822 M365.167 279.429 C 365.762 279.551,366.475 279.645,366.750 279.638 C 367.025 279.631,366.688 279.526,366.000 279.406 C 364.381 279.123,363.759 279.140,365.167 279.429 M367.815 279.826 C 368.126 279.904,368.801 280.008,369.315 280.059 C 370.023 280.128,370.113 280.115,369.685 280.008 C 369.374 279.930,368.699 279.825,368.185 279.775 C 367.477 279.706,367.387 279.718,367.815 279.826 M281.750 281.833 C 280.653 282.933,279.793 283.833,279.839 283.833 C 279.884 283.833,280.820 282.933,281.917 281.833 C 283.014 280.733,283.874 279.833,283.828 279.833 C 283.782 279.833,282.847 280.733,281.750 281.833 M371.333 280.397 C 371.333 280.432,371.521 280.497,371.750 280.541 C 371.979 280.585,372.167 280.556,372.167 280.477 C 372.167 280.398,371.979 280.333,371.750 280.333 C 371.521 280.333,371.333 280.362,371.333 280.397 M120.750 284.500 C 121.108 284.867,121.438 285.167,121.484 285.167 C 121.530 285.167,121.275 284.867,120.917 284.500 C 120.559 284.133,120.228 283.833,120.182 283.833 C 120.137 283.833,120.392 284.133,120.750 284.500 M190.627 315.451 C 190.834 315.491,191.134 315.490,191.294 315.448 C 191.453 315.406,191.283 315.374,190.917 315.375 C 190.550 315.377,190.420 315.411,190.627 315.451 M208.625 315.451 C 208.831 315.491,209.169 315.491,209.375 315.451 C 209.581 315.411,209.412 315.379,209.000 315.379 C 208.588 315.379,208.419 315.411,208.625 315.451 M193.458 315.621 C 193.756 315.658,194.244 315.658,194.542 315.621 C 194.840 315.584,194.596 315.553,194.000 315.553 C 193.404 315.553,193.160 315.584,193.458 315.621 M205.461 315.621 C 205.761 315.658,206.211 315.657,206.461 315.619 C 206.712 315.581,206.467 315.551,205.917 315.552 C 205.367 315.553,205.162 315.584,205.461 315.621 M196.042 315.789 C 196.477 315.824,197.190 315.824,197.625 315.789 C 198.060 315.755,197.704 315.727,196.833 315.727 C 195.963 315.727,195.606 315.755,196.042 315.789 M202.380 315.789 C 202.818 315.824,203.493 315.823,203.880 315.788 C 204.267 315.754,203.908 315.725,203.083 315.726 C 202.258 315.726,201.942 315.755,202.380 315.789 M199.208 315.956 C 199.644 315.990,200.356 315.990,200.792 315.956 C 201.227 315.922,200.871 315.893,200.000 315.893 C 199.129 315.893,198.773 315.922,199.208 315.956 M58.833 327.219 C 58.833 327.248,59.077 327.491,59.375 327.760 L 59.917 328.250 59.427 327.708 C 58.971 327.203,58.833 327.090,58.833 327.219 M339.573 328.875 L 339.083 329.417 339.625 328.927 C 340.130 328.471,340.243 328.333,340.115 328.333 C 340.086 328.333,339.842 328.577,339.573 328.875 M65.667 334.417 C 67.269 336.021,68.617 337.333,68.663 337.333 C 68.709 337.333,67.436 336.021,65.833 334.417 C 64.231 332.813,62.883 331.500,62.837 331.500 C 62.791 331.500,64.064 332.813,65.667 334.417 M334.165 334.458 L 331.250 337.417 334.208 334.502 C 335.835 332.899,337.167 331.567,337.167 331.543 C 337.167 331.425,336.873 331.710,334.165 334.458 M71.833 340.219 C 71.833 340.248,72.077 340.491,72.375 340.760 L 72.917 341.250 72.427 340.708 C 71.971 340.203,71.833 340.090,71.833 340.219 M181.208 389.115 C 181.369 389.157,181.631 389.157,181.792 389.115 C 181.952 389.073,181.821 389.039,181.500 389.039 C 181.179 389.039,181.048 389.073,181.208 389.115 M218.208 389.115 C 218.369 389.157,218.631 389.157,218.792 389.115 C 218.952 389.073,218.821 389.039,218.500 389.039 C 218.179 389.039,218.048 389.073,218.208 389.115 M186.958 389.618 C 187.165 389.657,187.502 389.657,187.708 389.618 C 187.915 389.578,187.746 389.545,187.333 389.545 C 186.921 389.545,186.752 389.578,186.958 389.618 M212.292 389.618 C 212.498 389.657,212.835 389.657,213.042 389.618 C 213.248 389.578,213.079 389.545,212.667 389.545 C 212.254 389.545,212.085 389.578,212.292 389.618 " stroke="none" fill="#396294" fill-rule="evenodd"></path><path id="path1" d="M191.917 10.173 C 185.522 10.448,176.954 11.258,171.750 12.079 C 165.128 13.125,160.138 14.103,155.065 15.349 C 152.045 16.090,146.704 17.543,145.417 17.973 C 145.142 18.065,144.242 18.339,143.417 18.581 C 140.975 19.299,135.640 21.126,133.083 22.120 C 122.965 26.052,114.826 29.855,106.833 34.384 C 105.871 34.930,104.821 35.524,104.500 35.705 C 98.840 38.898,88.535 45.866,83.734 49.747 L 82.884 50.434 84.711 52.842 C 101.823 75.403,109.872 88.021,119.385 107.196 C 121.144 110.742,122.621 113.648,122.667 113.655 C 122.712 113.661,122.947 113.498,123.187 113.291 C 133.499 104.455,142.291 98.845,153.750 93.791 C 158.370 91.753,165.724 89.117,168.917 88.353 C 169.283 88.265,170.258 88.010,171.083 87.787 C 173.699 87.078,177.077 86.361,180.333 85.823 C 194.288 83.519,208.970 83.749,223.333 86.498 C 226.614 87.125,232.114 88.599,236.016 89.896 C 244.065 92.571,251.294 95.869,259.167 100.458 C 260.573 101.278,266.772 105.299,267.236 105.692 C 267.336 105.776,268.279 106.490,269.333 107.278 C 277.339 113.262,285.558 121.326,291.305 128.833 C 294.099 132.484,294.236 132.675,296.511 136.093 C 301.543 143.651,306.450 153.429,309.009 161.000 C 309.180 161.504,309.580 162.642,309.899 163.529 C 311.479 167.923,313.164 174.847,314.333 181.750 C 316.323 193.501,316.121 209.191,313.827 221.083 C 312.577 227.560,311.690 231.003,309.896 236.333 C 308.758 239.714,306.803 244.820,306.407 245.443 C 306.022 246.050,305.363 245.867,318.917 248.919 C 338.771 253.390,350.878 256.258,369.333 260.861 C 374.512 262.153,378.852 263.219,378.977 263.230 C 379.201 263.250,380.610 259.387,381.599 256.044 C 381.836 255.241,382.181 254.096,382.365 253.500 C 382.916 251.718,384.512 245.659,384.977 243.583 C 385.079 243.125,385.317 242.075,385.505 241.250 C 385.897 239.528,386.924 234.426,387.082 233.417 C 387.337 231.790,388.042 227.396,388.165 226.667 C 388.251 226.162,388.438 224.625,388.581 223.250 C 388.724 221.875,388.918 220.188,389.011 219.500 C 389.878 213.133,390.263 195.439,389.680 188.750 C 389.592 187.742,389.438 185.717,389.338 184.250 C 389.238 182.783,389.085 181.058,388.998 180.417 C 388.910 179.775,388.722 178.125,388.580 176.750 C 388.437 175.375,388.251 173.838,388.165 173.333 C 388.080 172.829,387.820 171.217,387.588 169.750 C 387.356 168.283,387.129 166.896,387.083 166.667 C 387.038 166.438,386.921 165.800,386.824 165.250 C 385.875 159.904,383.871 151.490,382.359 146.500 C 382.178 145.904,381.839 144.770,381.606 143.980 C 380.811 141.292,378.096 133.459,377.425 131.917 C 377.305 131.642,376.966 130.779,376.672 130.000 C 370.231 112.957,357.850 92.233,345.500 77.822 C 344.904 77.127,344.079 76.153,343.667 75.658 C 339.334 70.459,329.727 60.849,324.348 56.333 C 323.857 55.921,322.921 55.127,322.269 54.568 C 321.320 53.755,319.190 52.023,317.000 50.282 C 313.145 47.217,306.407 42.478,300.917 38.969 C 296.488 36.139,289.453 32.219,283.983 29.533 C 279.703 27.431,273.826 24.821,270.167 23.395 C 269.112 22.985,268.100 22.580,267.917 22.495 C 266.789 21.975,259.246 19.369,256.583 18.581 C 255.758 18.336,254.783 18.036,254.417 17.913 C 251.537 16.948,243.401 14.895,238.667 13.939 C 227.814 11.748,219.056 10.680,207.750 10.168 C 203.992 9.998,195.929 10.000,191.917 10.173 M195.583 144.026 C 191.610 144.469,189.926 144.685,189.290 144.834 C 184.598 145.929,180.970 146.993,179.083 147.827 C 178.717 147.989,178.081 148.263,177.670 148.436 C 168.989 152.088,159.872 159.442,154.363 167.235 C 153.469 168.500,153.383 168.231,155.511 170.833 C 174.766 194.391,203.631 212.951,243.911 227.675 L 247.905 229.135 248.636 227.859 C 254.655 217.360,257.107 204.944,255.586 192.667 C 255.072 188.514,253.504 182.374,252.245 179.583 C 252.121 179.308,251.716 178.363,251.344 177.483 C 248.666 171.133,243.126 163.252,238.462 159.158 C 237.795 158.572,237.095 157.941,236.906 157.755 C 234.767 155.650,229.736 152.219,225.750 150.147 C 220.861 147.605,217.688 146.485,210.750 144.851 C 210.081 144.693,207.237 144.336,204.036 144.009 C 202.032 143.804,197.496 143.813,195.583 144.026 " stroke="none" fill="#ab6454" fill-rule="evenodd"></path><path id="path2" d="M0.000 200.000 L 0.000 400.000 200.000 400.000 L 400.000 400.000 400.000 200.000 L 400.000 0.000 200.000 0.000 L 0.000 0.000 0.000 200.000 M210.333 10.164 C 212.121 10.254,214.371 10.405,215.333 10.501 C 216.296 10.597,218.246 10.786,219.667 10.922 C 224.775 11.410,232.558 12.547,236.750 13.417 C 243.460 14.810,244.922 15.156,250.833 16.752 C 251.063 16.814,251.700 17.001,252.250 17.168 C 252.800 17.335,254.075 17.712,255.083 18.005 C 266.498 21.327,280.652 27.303,292.000 33.592 C 293.604 34.481,295.085 35.293,295.290 35.396 C 295.496 35.499,295.665 35.640,295.665 35.708 C 295.666 35.777,295.742 35.833,295.835 35.833 C 295.928 35.833,296.697 36.265,297.543 36.792 C 298.390 37.319,299.211 37.825,299.367 37.917 C 301.482 39.159,307.489 43.117,309.833 44.813 C 310.337 45.177,311.050 45.688,311.416 45.946 C 312.409 46.647,317.467 50.467,317.667 50.667 C 317.712 50.712,318.500 51.348,319.417 52.079 C 322.252 54.340,326.070 57.666,329.492 60.856 C 336.587 67.471,344.132 75.653,349.448 82.495 C 349.557 82.635,349.970 83.162,350.367 83.667 C 350.763 84.171,351.574 85.244,352.169 86.052 C 352.763 86.859,353.662 88.072,354.167 88.748 C 354.671 89.423,355.421 90.472,355.833 91.078 C 356.246 91.684,356.659 92.270,356.752 92.381 C 357.571 93.364,364.167 103.850,364.167 104.169 C 364.167 104.259,364.223 104.334,364.292 104.335 C 364.360 104.335,364.499 104.504,364.599 104.710 C 364.700 104.915,365.436 106.246,366.236 107.667 C 368.249 111.243,372.492 119.836,374.260 123.917 C 375.687 127.210,376.378 128.888,377.428 131.607 C 378.109 133.371,378.667 134.886,378.667 134.972 C 378.667 135.058,378.779 135.343,378.916 135.606 C 379.053 135.869,379.165 136.202,379.166 136.347 C 379.166 136.492,379.208 136.652,379.258 136.703 C 379.308 136.753,379.824 138.209,380.405 139.939 C 381.413 142.943,381.866 144.392,382.662 147.167 C 383.361 149.599,383.454 149.928,383.744 151.000 C 383.905 151.596,384.141 152.458,384.268 152.917 C 384.625 154.206,385.435 157.696,385.911 160.000 C 386.821 164.403,386.997 165.299,387.252 166.833 C 387.396 167.704,387.584 168.829,387.669 169.333 C 387.827 170.276,388.167 172.697,388.594 175.917 C 388.832 177.716,389.304 182.103,389.401 183.417 C 389.428 183.783,389.554 185.321,389.683 186.833 C 390.009 190.691,390.009 209.309,389.683 213.167 C 389.554 214.679,389.428 216.217,389.401 216.583 C 389.304 217.897,388.832 222.284,388.594 224.083 C 388.167 227.303,387.827 229.724,387.669 230.667 C 387.584 231.171,387.396 232.296,387.252 233.167 C 386.682 236.596,384.998 244.451,384.268 247.083 C 384.141 247.542,383.905 248.404,383.744 249.000 C 383.454 250.072,383.361 250.401,382.662 252.833 C 381.602 256.528,379.635 262.640,379.325 263.206 C 379.238 263.365,379.167 263.579,379.167 263.681 C 379.167 263.783,379.063 264.103,378.936 264.391 C 378.809 264.680,378.554 265.329,378.369 265.833 C 377.178 269.092,375.134 274.153,374.164 276.250 C 373.994 276.617,373.668 277.345,373.440 277.868 C 371.436 282.457,367.574 290.083,365.185 294.167 C 364.890 294.671,364.606 295.215,364.555 295.375 C 364.503 295.535,364.395 295.667,364.314 295.667 C 364.233 295.667,364.167 295.732,364.167 295.812 C 364.167 296.380,356.289 308.506,353.857 311.681 C 353.523 312.117,352.763 313.136,352.169 313.945 C 351.574 314.754,350.763 315.829,350.367 316.333 C 349.970 316.837,349.557 317.365,349.448 317.505 C 349.013 318.065,346.561 321.107,346.229 321.499 C 344.094 324.016,341.467 327.012,340.017 328.582 C 336.806 332.057,329.800 338.965,326.575 341.836 C 323.843 344.268,318.911 348.403,317.585 349.373 C 317.492 349.441,316.967 349.858,316.417 350.301 C 315.867 350.743,315.043 351.363,314.587 351.677 C 314.131 351.992,313.606 352.387,313.421 352.554 C 313.235 352.722,312.490 353.284,311.764 353.804 C 311.038 354.324,310.138 354.969,309.764 355.238 C 307.254 357.036,301.412 360.883,299.367 362.083 C 299.211 362.175,298.390 362.681,297.543 363.208 C 296.697 363.735,295.958 364.167,295.903 364.167 C 295.847 364.167,295.600 364.310,295.354 364.485 C 295.108 364.660,294.572 364.988,294.162 365.213 C 293.752 365.438,292.442 366.164,291.250 366.826 C 289.192 367.970,279.499 372.833,279.278 372.833 C 279.221 372.833,278.591 373.104,277.879 373.434 C 270.529 376.844,261.256 380.248,252.250 382.842 C 250.155 383.446,249.711 383.565,246.167 384.470 C 243.519 385.147,241.773 385.536,236.417 386.645 C 234.149 387.115,227.749 388.116,224.053 388.580 C 223.028 388.709,221.941 388.856,221.636 388.907 C 220.764 389.055,215.277 389.500,213.167 389.595 C 212.112 389.642,210.425 389.752,209.417 389.840 C 207.038 390.046,192.962 390.046,190.583 389.840 C 189.575 389.752,187.887 389.642,186.833 389.595 C 184.723 389.500,179.236 389.055,178.364 388.907 C 178.059 388.856,176.972 388.709,175.947 388.580 C 172.257 388.117,165.855 387.116,163.583 386.646 C 158.706 385.637,156.931 385.244,154.376 384.603 C 151.722 383.937,149.962 383.468,148.667 383.082 C 148.162 382.932,147.112 382.633,146.333 382.418 C 140.288 380.750,129.716 376.886,123.667 374.133 C 123.254 373.945,122.504 373.605,122.000 373.376 C 116.480 370.876,112.241 368.755,107.375 366.059 C 106.985 365.843,106.313 365.472,105.880 365.235 C 105.447 364.998,104.892 364.660,104.646 364.485 C 104.400 364.310,104.159 364.167,104.112 364.167 C 104.064 364.167,103.400 363.782,102.637 363.311 C 101.874 362.840,101.047 362.334,100.798 362.186 C 98.226 360.654,90.143 355.314,89.667 354.832 C 89.536 354.701,87.797 353.437,87.333 353.138 C 87.104 352.989,86.767 352.729,86.583 352.559 C 86.400 352.389,85.950 352.046,85.583 351.797 C 85.217 351.547,84.392 350.931,83.750 350.426 C 83.108 349.922,82.508 349.451,82.415 349.380 C 81.767 348.881,78.838 346.522,78.500 346.227 C 78.271 346.027,77.408 345.285,76.583 344.577 C 72.376 340.966,71.402 340.064,66.778 335.506 C 63.313 332.090,59.659 328.284,57.730 326.081 C 54.825 322.764,52.043 319.443,50.833 317.851 C 50.604 317.549,50.074 316.878,49.656 316.359 C 49.237 315.841,48.637 315.043,48.323 314.587 C 48.008 314.131,47.612 313.606,47.444 313.421 C 47.275 313.235,46.878 312.708,46.561 312.250 C 46.244 311.792,45.654 310.967,45.249 310.417 C 42.918 307.245,38.056 299.760,35.830 295.917 C 35.671 295.642,35.258 294.929,34.912 294.333 C 34.567 293.737,34.061 292.837,33.789 292.333 C 33.517 291.829,33.235 291.342,33.163 291.250 C 33.091 291.158,32.095 289.246,30.950 287.000 C 29.187 283.541,28.221 281.512,25.833 276.250 C 24.812 274.000,22.625 268.661,22.113 267.167 C 21.972 266.754,21.659 265.892,21.418 265.250 C 20.304 262.278,18.114 255.625,17.440 253.167 C 17.302 252.662,17.069 251.838,16.922 251.333 C 16.403 249.552,15.037 244.342,14.916 243.680 C 14.872 243.444,14.802 243.100,14.761 242.917 C 13.433 237.111,12.876 234.126,11.896 227.583 C 11.243 223.220,10.751 218.613,10.506 214.583 C 10.406 212.933,10.251 210.663,10.162 209.539 C 9.952 206.888,9.952 193.112,10.162 190.461 C 10.251 189.337,10.406 187.067,10.506 185.417 C 11.028 176.812,12.517 166.896,14.761 157.083 C 14.802 156.900,14.872 156.556,14.916 156.320 C 15.038 155.655,16.401 150.455,16.922 148.667 C 17.069 148.162,17.302 147.337,17.440 146.833 C 18.114 144.375,20.304 137.722,21.418 134.750 C 21.659 134.108,21.971 133.246,22.111 132.833 C 22.550 131.546,24.923 125.753,25.833 123.750 C 29.583 115.491,31.976 110.724,34.912 105.667 C 35.258 105.071,35.671 104.358,35.830 104.083 C 37.233 101.662,40.281 96.822,42.103 94.122 C 44.374 90.758,44.730 90.253,46.333 88.114 C 46.837 87.442,47.383 86.710,47.546 86.488 C 49.635 83.629,52.982 79.404,54.750 77.394 C 54.842 77.290,55.254 76.805,55.667 76.316 C 56.079 75.827,56.792 75.007,57.250 74.492 C 57.708 73.978,58.604 72.963,59.239 72.237 C 60.722 70.544,70.504 60.765,72.237 59.243 C 72.963 58.605,73.980 57.708,74.496 57.250 C 76.488 55.483,77.640 54.486,78.103 54.130 C 78.367 53.926,79.078 53.345,79.684 52.838 C 80.289 52.331,80.928 51.804,81.104 51.667 C 81.279 51.529,82.134 50.851,83.003 50.159 C 83.872 49.468,84.957 48.643,85.413 48.326 C 85.869 48.009,86.394 47.611,86.579 47.441 C 86.765 47.271,87.104 47.011,87.333 46.864 C 87.563 46.717,88.199 46.256,88.748 45.840 C 90.426 44.567,97.171 40.008,99.083 38.854 C 99.725 38.466,100.362 38.080,100.500 37.994 C 103.351 36.228,104.007 35.833,104.095 35.833 C 104.152 35.833,104.400 35.690,104.646 35.515 C 104.892 35.340,105.428 35.013,105.838 34.788 C 106.248 34.563,107.596 33.819,108.833 33.134 C 111.208 31.821,117.887 28.457,120.000 27.511 C 120.688 27.203,121.737 26.730,122.333 26.458 C 130.853 22.581,141.427 18.798,150.417 16.411 C 153.188 15.675,156.654 14.819,158.167 14.496 C 159.129 14.290,160.367 14.026,160.917 13.908 C 164.904 13.057,166.944 12.691,171.167 12.072 C 174.999 11.510,177.195 11.236,180.333 10.927 C 181.754 10.787,183.742 10.591,184.750 10.491 C 189.422 10.028,203.892 9.843,210.333 10.164 M193.917 84.438 C 180.347 85.183,166.223 88.417,155.083 93.329 C 154.900 93.409,153.850 93.871,152.750 94.355 C 149.010 96.000,144.020 98.641,139.167 101.544 C 138.089 102.189,133.760 105.056,132.750 105.794 C 132.200 106.196,131.573 106.651,131.357 106.804 C 130.656 107.303,125.262 111.612,124.821 112.026 C 124.585 112.248,124.173 112.602,123.905 112.813 C 121.055 115.055,114.700 121.541,111.137 125.843 C 109.607 127.691,109.219 128.178,107.764 130.070 C 96.341 144.924,88.439 163.598,85.579 182.500 C 85.423 183.527,84.830 188.683,84.630 190.750 C 84.374 193.401,84.378 206.430,84.636 209.167 C 85.231 215.473,86.038 221.075,86.833 224.417 C 86.920 224.783,87.262 226.208,87.593 227.583 C 87.924 228.958,88.220 230.196,88.250 230.333 C 88.900 233.230,92.460 243.107,94.168 246.753 C 94.534 247.534,94.833 248.216,94.833 248.267 C 94.833 248.427,97.734 254.168,98.529 255.583 C 100.610 259.286,103.028 263.218,104.870 265.894 C 105.712 267.118,109.455 272.065,110.320 273.097 C 123.128 288.376,137.042 298.774,155.250 306.671 C 155.619 306.831,157.476 307.567,159.211 308.241 C 160.928 308.908,164.902 310.266,166.583 310.759 C 167.408 311.001,168.458 311.309,168.917 311.443 C 176.811 313.753,184.587 314.922,197.052 315.672 C 202.381 315.993,217.123 314.765,221.917 313.601 C 222.100 313.557,223.000 313.358,223.917 313.160 C 228.635 312.139,230.194 311.731,234.417 310.414 C 238.154 309.249,244.068 307.000,246.962 305.645 C 247.720 305.290,248.379 305.000,248.428 305.000 C 248.476 305.000,249.693 304.412,251.133 303.693 C 260.335 299.098,267.387 294.411,275.742 287.334 C 278.910 284.650,284.562 279.000,287.336 275.742 C 288.610 274.246,290.466 272.012,290.794 271.580 C 291.001 271.307,291.676 270.430,292.294 269.631 C 299.068 260.867,304.938 249.936,309.055 238.417 C 310.728 233.735,311.712 230.389,312.683 226.083 C 313.617 221.938,314.047 219.676,314.252 217.833 C 314.298 217.421,314.411 216.633,314.503 216.083 C 314.850 214.007,315.317 208.758,315.668 202.985 C 315.854 199.913,315.811 198.482,315.335 191.917 C 315.118 188.933,314.707 184.936,314.504 183.833 C 314.412 183.329,314.302 182.579,314.260 182.167 C 314.094 180.508,313.379 176.740,312.584 173.333 C 312.552 173.196,312.369 172.408,312.177 171.583 C 311.985 170.758,311.759 169.896,311.676 169.667 C 311.593 169.438,311.362 168.688,311.163 168.000 C 310.343 165.166,308.239 158.983,307.675 157.750 C 307.592 157.567,306.908 155.954,306.157 154.167 C 303.265 147.291,298.644 139.061,294.222 132.917 C 293.826 132.367,293.370 131.733,293.209 131.509 C 289.325 126.103,281.954 117.998,276.900 113.577 C 270.083 107.614,263.425 102.891,256.167 98.871 C 255.754 98.642,255.342 98.398,255.250 98.327 C 255.023 98.153,248.713 95.000,248.591 95.000 C 248.537 95.000,247.876 94.705,247.122 94.344 C 244.338 93.012,237.425 90.377,234.500 89.533 C 234.179 89.440,233.017 89.087,231.917 88.748 C 230.817 88.409,229.129 87.946,228.167 87.719 C 227.204 87.493,225.967 87.199,225.417 87.068 C 221.541 86.143,215.238 85.194,209.417 84.660 C 207.652 84.498,195.893 84.330,193.917 84.438 M208.000 144.308 C 213.309 145.161,218.558 146.613,221.917 148.158 C 233.048 153.279,241.037 160.004,247.115 169.370 C 247.693 170.261,248.167 171.067,248.167 171.162 C 248.167 171.256,248.223 171.334,248.292 171.335 C 248.360 171.335,248.499 171.504,248.601 171.710 C 248.702 171.915,249.246 172.955,249.810 174.021 C 256.713 187.062,258.050 202.897,253.465 217.333 C 253.188 218.204,252.862 219.142,252.740 219.417 C 252.618 219.692,252.242 220.592,251.906 221.417 C 249.899 226.334,246.274 232.315,243.061 236.009 C 240.675 238.751,238.751 240.677,236.048 243.026 C 233.369 245.354,228.883 248.279,225.019 250.217 C 219.199 253.138,214.457 254.619,207.833 255.585 C 182.933 259.216,157.689 244.986,148.257 222.000 C 148.013 221.404,147.711 220.692,147.586 220.417 C 146.058 217.036,144.846 211.907,144.002 205.250 C 143.538 201.594,143.923 193.507,144.759 189.333 C 147.377 176.261,154.055 165.018,164.201 156.602 C 165.822 155.257,169.878 152.333,170.123 152.333 C 170.178 152.333,170.342 152.229,170.487 152.100 C 170.900 151.735,172.043 151.100,174.833 149.687 C 181.046 146.542,187.046 144.816,194.833 143.934 C 196.694 143.724,206.011 143.988,208.000 144.308 " stroke="none" fill="#bba3db" fill-rule="evenodd"></path><path id="path3" d="M186.877 10.453 C 187.131 10.491,187.506 10.490,187.711 10.451 C 187.916 10.411,187.708 10.380,187.250 10.381 C 186.792 10.382,186.624 10.415,186.877 10.453 M212.292 10.451 C 212.498 10.491,212.835 10.491,213.042 10.451 C 213.248 10.411,213.079 10.379,212.667 10.379 C 212.254 10.379,212.085 10.411,212.292 10.451 M184.375 10.615 C 184.535 10.657,184.798 10.657,184.958 10.615 C 185.119 10.573,184.987 10.539,184.667 10.539 C 184.346 10.539,184.215 10.573,184.375 10.615 M215.042 10.615 C 215.202 10.657,215.465 10.657,215.625 10.615 C 215.785 10.573,215.654 10.539,215.333 10.539 C 215.012 10.539,214.881 10.573,215.042 10.615 M330.500 61.917 C 330.998 62.421,331.443 62.833,331.489 62.833 C 331.534 62.833,331.165 62.421,330.667 61.917 C 330.169 61.413,329.724 61.000,329.678 61.000 C 329.632 61.000,330.002 61.413,330.500 61.917 M190.625 84.618 C 190.831 84.657,191.169 84.657,191.375 84.618 C 191.581 84.578,191.412 84.545,191.000 84.545 C 190.588 84.545,190.419 84.578,190.625 84.618 M208.627 84.618 C 208.834 84.658,209.134 84.656,209.294 84.615 C 209.453 84.573,209.283 84.540,208.917 84.542 C 208.550 84.544,208.420 84.578,208.627 84.618 M188.375 84.782 C 188.535 84.823,188.798 84.823,188.958 84.782 C 189.119 84.740,188.987 84.705,188.667 84.705 C 188.346 84.705,188.215 84.740,188.375 84.782 M210.875 84.782 C 211.035 84.823,211.298 84.823,211.458 84.782 C 211.619 84.740,211.487 84.705,211.167 84.705 C 210.846 84.705,210.715 84.740,210.875 84.782 M281.750 118.167 C 282.847 119.267,283.782 120.167,283.828 120.167 C 283.874 120.167,283.014 119.267,281.917 118.167 C 280.820 117.067,279.884 116.167,279.839 116.167 C 279.793 116.167,280.653 117.067,281.750 118.167 M194.542 144.115 C 194.702 144.157,194.965 144.157,195.125 144.115 C 195.285 144.073,195.154 144.039,194.833 144.039 C 194.512 144.039,194.381 144.073,194.542 144.115 M204.708 144.115 C 204.869 144.157,205.131 144.157,205.292 144.115 C 205.452 144.073,205.321 144.039,205.000 144.039 C 204.679 144.039,204.548 144.073,204.708 144.115 M160.161 160.292 L 159.250 161.250 160.208 160.339 C 161.099 159.493,161.243 159.333,161.119 159.333 C 161.093 159.333,160.662 159.765,160.161 160.292 M388.872 179.500 C 388.872 179.821,388.906 179.952,388.948 179.792 C 388.990 179.631,388.990 179.369,388.948 179.208 C 388.906 179.048,388.872 179.179,388.872 179.500 M389.205 182.500 C 389.205 182.821,389.240 182.952,389.282 182.792 C 389.323 182.631,389.323 182.369,389.282 182.208 C 389.240 182.048,389.205 182.179,389.205 182.500 M389.372 184.667 C 389.372 184.987,389.406 185.119,389.448 184.958 C 389.490 184.798,389.490 184.535,389.448 184.375 C 389.406 184.215,389.372 184.346,389.372 184.667 M389.542 187.250 C 389.544 187.617,389.578 187.747,389.618 187.540 C 389.658 187.332,389.656 187.032,389.615 186.873 C 389.573 186.714,389.540 186.883,389.542 187.250 M315.205 189.833 C 315.205 190.154,315.240 190.285,315.282 190.125 C 315.323 189.965,315.323 189.702,315.282 189.542 C 315.240 189.381,315.205 189.512,315.205 189.833 M315.381 192.250 C 315.382 192.708,315.415 192.876,315.453 192.623 C 315.491 192.369,315.490 191.994,315.451 191.789 C 315.411 191.584,315.380 191.792,315.381 192.250 M389.890 193.083 C 389.891 193.817,389.920 194.096,389.956 193.704 C 389.991 193.312,389.990 192.712,389.954 192.371 C 389.919 192.029,389.890 192.350,389.890 193.083 M255.879 196.000 C 255.879 196.412,255.911 196.581,255.951 196.375 C 255.991 196.169,255.991 195.831,255.951 195.625 C 255.911 195.419,255.879 195.588,255.879 196.000 M315.726 196.917 C 315.725 197.742,315.754 198.100,315.788 197.713 C 315.823 197.327,315.824 196.652,315.789 196.213 C 315.755 195.775,315.726 196.092,315.726 196.917 M315.726 203.083 C 315.725 203.908,315.754 204.267,315.788 203.880 C 315.823 203.493,315.824 202.818,315.789 202.380 C 315.755 201.942,315.726 202.258,315.726 203.083 M255.879 203.833 C 255.879 204.246,255.911 204.415,255.951 204.208 C 255.991 204.002,255.991 203.665,255.951 203.458 C 255.911 203.252,255.879 203.421,255.879 203.833 M389.890 206.917 C 389.891 207.650,389.920 207.929,389.956 207.537 C 389.991 207.145,389.990 206.545,389.954 206.204 C 389.919 205.863,389.890 206.183,389.890 206.917 M315.381 207.583 C 315.382 208.042,315.415 208.209,315.453 207.956 C 315.491 207.703,315.490 207.328,315.451 207.123 C 315.411 206.918,315.380 207.125,315.381 207.583 M315.205 210.167 C 315.205 210.487,315.240 210.619,315.282 210.458 C 315.323 210.298,315.323 210.035,315.282 209.875 C 315.240 209.715,315.205 209.846,315.205 210.167 M389.542 212.750 C 389.544 213.117,389.578 213.247,389.618 213.040 C 389.658 212.832,389.656 212.532,389.615 212.373 C 389.573 212.214,389.540 212.383,389.542 212.750 M389.372 215.333 C 389.372 215.654,389.406 215.785,389.448 215.625 C 389.490 215.465,389.490 215.202,389.448 215.042 C 389.406 214.881,389.372 215.012,389.372 215.333 M388.872 220.500 C 388.872 220.821,388.906 220.952,388.948 220.792 C 388.990 220.631,388.990 220.369,388.948 220.208 C 388.906 220.048,388.872 220.179,388.872 220.500 " stroke="none" fill="#af8293" fill-rule="evenodd"></path><path id="path4" d="M80.907 51.928 C 69.150 61.316,57.157 73.707,48.042 85.884 C 46.847 87.480,46.843 87.497,47.466 88.309 C 47.722 88.643,48.040 89.078,48.174 89.276 C 48.307 89.474,49.322 90.900,50.429 92.445 C 54.206 97.717,60.538 107.469,63.506 112.583 C 71.222 125.882,76.448 136.665,80.952 148.583 C 83.349 154.926,85.991 163.382,87.344 169.042 C 87.789 170.902,87.900 171.005,88.159 169.798 C 89.728 162.479,95.349 149.305,100.645 140.534 C 101.436 139.223,102.159 138.023,102.251 137.867 C 102.511 137.425,105.171 133.465,105.477 133.064 C 105.627 132.867,105.862 132.538,106.000 132.333 C 108.616 128.443,114.460 121.701,119.308 116.982 L 122.665 113.715 119.774 107.899 C 112.999 94.271,107.049 83.992,100.594 74.762 C 94.124 65.511,83.127 50.500,82.819 50.500 C 82.751 50.500,81.891 51.143,80.907 51.928 M152.753 169.545 C 151.554 171.420,149.707 174.839,148.918 176.644 C 148.492 177.619,148.077 178.567,147.996 178.750 C 144.090 187.585,142.755 201.085,144.841 210.667 C 145.452 213.471,145.722 214.585,146.095 215.833 C 146.550 217.355,147.111 219.044,147.341 219.583 C 147.419 219.767,147.796 220.667,148.179 221.583 C 157.902 244.886,182.070 258.838,207.083 255.589 C 208.825 255.362,210.362 255.149,210.500 255.115 C 210.637 255.081,211.050 254.996,211.417 254.925 C 225.102 252.293,238.371 243.329,246.628 231.137 C 247.990 229.127,248.006 229.079,247.375 228.922 C 246.140 228.614,237.380 225.257,231.238 222.736 C 196.701 208.565,170.815 190.582,154.190 169.208 C 153.497 168.318,153.544 168.307,152.753 169.545 M306.013 246.371 C 305.657 247.282,303.429 252.007,302.927 252.917 C 302.623 253.467,302.055 254.514,301.664 255.245 C 299.627 259.051,296.268 264.346,293.518 268.083 C 292.776 269.092,291.947 270.226,291.675 270.603 L 291.181 271.289 293.799 271.401 C 295.239 271.462,297.467 271.584,298.750 271.672 C 300.033 271.760,302.771 271.942,304.833 272.078 C 310.325 272.439,316.885 273.006,322.250 273.585 C 323.442 273.713,325.579 273.939,327.000 274.086 C 329.333 274.328,334.317 274.900,335.583 275.070 C 335.858 275.107,336.496 275.186,337.000 275.245 C 339.511 275.539,346.221 276.440,350.833 277.103 C 358.306 278.176,368.356 279.728,370.648 280.163 C 372.187 280.455,372.249 280.433,372.668 279.458 C 372.875 278.977,373.213 278.208,373.419 277.750 C 373.626 277.292,374.034 276.354,374.327 275.667 C 374.620 274.979,374.991 274.117,375.153 273.750 C 375.315 273.383,375.842 272.108,376.325 270.917 C 376.808 269.725,377.269 268.600,377.349 268.417 C 377.786 267.417,379.162 263.440,379.095 263.372 C 378.952 263.230,356.965 257.762,348.750 255.826 C 347.283 255.481,344.958 254.929,343.583 254.599 C 342.208 254.270,337.483 253.174,333.083 252.164 C 328.683 251.154,324.783 250.254,324.417 250.163 C 324.050 250.073,321.875 249.583,319.583 249.074 C 314.119 247.861,312.247 247.435,309.333 246.742 C 308.004 246.425,306.747 246.127,306.539 246.079 C 306.255 246.014,306.124 246.087,306.013 246.371 " stroke="none" fill="#7a4fae" fill-rule="evenodd"></path><path id="path5" d="M11.039 179.500 C 11.039 179.821,11.073 179.952,11.115 179.792 C 11.157 179.631,11.157 179.369,11.115 179.208 C 11.073 179.048,11.039 179.179,11.039 179.500 M10.705 182.500 C 10.705 182.821,10.740 182.952,10.782 182.792 C 10.823 182.631,10.823 182.369,10.782 182.208 C 10.740 182.048,10.705 182.179,10.705 182.500 M10.542 184.583 C 10.544 184.950,10.578 185.080,10.618 184.873 C 10.658 184.666,10.656 184.366,10.615 184.206 C 10.573 184.047,10.540 184.217,10.542 184.583 M10.379 187.333 C 10.379 187.746,10.411 187.915,10.451 187.708 C 10.491 187.502,10.491 187.165,10.451 186.958 C 10.411 186.752,10.379 186.921,10.379 187.333 M84.709 188.750 C 84.711 189.117,84.745 189.247,84.785 189.040 C 84.824 188.832,84.823 188.532,84.781 188.373 C 84.739 188.214,84.707 188.383,84.709 188.750 M84.545 191.000 C 84.545 191.412,84.578 191.581,84.618 191.375 C 84.657 191.169,84.657 190.831,84.618 190.625 C 84.578 190.419,84.545 190.588,84.545 191.000 M10.058 193.000 C 10.058 193.779,10.087 194.098,10.122 193.708 C 10.157 193.319,10.157 192.681,10.122 192.292 C 10.087 191.902,10.058 192.221,10.058 193.000 M10.058 207.000 C 10.058 207.779,10.087 208.098,10.122 207.708 C 10.157 207.319,10.157 206.681,10.122 206.292 C 10.087 205.902,10.058 206.221,10.058 207.000 M84.545 209.000 C 84.545 209.412,84.578 209.581,84.618 209.375 C 84.657 209.169,84.657 208.831,84.618 208.625 C 84.578 208.419,84.545 208.588,84.545 209.000 M84.705 211.167 C 84.705 211.487,84.740 211.619,84.782 211.458 C 84.823 211.298,84.823 211.035,84.782 210.875 C 84.740 210.715,84.705 210.846,84.705 211.167 M10.379 212.667 C 10.379 213.079,10.411 213.248,10.451 213.042 C 10.491 212.835,10.491 212.498,10.451 212.292 C 10.411 212.085,10.379 212.254,10.379 212.667 M10.542 215.417 C 10.544 215.783,10.578 215.914,10.618 215.706 C 10.658 215.499,10.656 215.199,10.615 215.040 C 10.573 214.880,10.540 215.050,10.542 215.417 M10.705 217.667 C 10.705 217.987,10.740 218.119,10.782 217.958 C 10.823 217.798,10.823 217.535,10.782 217.375 C 10.740 217.215,10.705 217.346,10.705 217.667 M11.039 220.500 C 11.039 220.821,11.073 220.952,11.115 220.792 C 11.157 220.631,11.157 220.369,11.115 220.208 C 11.073 220.048,11.039 220.179,11.039 220.500 M284.409 279.042 L 283.750 279.750 284.458 279.091 C 285.117 278.478,285.243 278.333,285.117 278.333 C 285.090 278.333,284.771 278.652,284.409 279.042 M118.083 281.833 C 119.180 282.933,120.116 283.833,120.161 283.833 C 120.207 283.833,119.347 282.933,118.250 281.833 C 117.153 280.733,116.218 279.833,116.172 279.833 C 116.126 279.833,116.986 280.733,118.083 281.833 M41.479 304.917 C 41.569 305.100,41.764 305.400,41.914 305.583 L 42.185 305.917 42.021 305.583 C 41.931 305.400,41.736 305.100,41.586 304.917 L 41.315 304.583 41.479 304.917 M189.542 315.282 C 189.702 315.323,189.965 315.323,190.125 315.282 C 190.285 315.240,190.154 315.205,189.833 315.205 C 189.512 315.205,189.381 315.240,189.542 315.282 M209.875 315.282 C 210.035 315.323,210.298 315.323,210.458 315.282 C 210.619 315.240,210.487 315.205,210.167 315.205 C 209.846 315.205,209.715 315.240,209.875 315.282 M191.877 315.453 C 192.131 315.491,192.506 315.490,192.711 315.451 C 192.916 315.411,192.708 315.380,192.250 315.381 C 191.792 315.382,191.624 315.415,191.877 315.453 M207.211 315.453 C 207.464 315.491,207.839 315.490,208.044 315.451 C 208.249 315.411,208.042 315.380,207.583 315.381 C 207.125 315.382,206.957 315.415,207.211 315.453 M55.166 323.125 C 55.384 323.423,55.589 323.667,55.621 323.667 C 55.747 323.667,55.334 323.042,55.061 322.820 C 54.881 322.673,54.921 322.790,55.166 323.125 M61.833 330.583 C 62.331 331.087,62.776 331.500,62.822 331.500 C 62.868 331.500,62.498 331.087,62.000 330.583 C 61.502 330.079,61.057 329.667,61.011 329.667 C 60.966 329.667,61.335 330.079,61.833 330.583 M337.994 330.625 L 337.083 331.583 338.042 330.672 C 338.932 329.826,339.076 329.667,338.953 329.667 C 338.927 329.667,338.495 330.098,337.994 330.625 M69.417 338.167 C 69.868 338.625,70.275 339.000,70.321 339.000 C 70.367 339.000,70.035 338.625,69.583 338.167 C 69.132 337.708,68.725 337.333,68.679 337.333 C 68.633 337.333,68.965 337.708,69.417 338.167 M330.410 338.208 L 329.583 339.083 330.458 338.256 C 331.271 337.488,331.410 337.333,331.285 337.333 C 331.259 337.333,330.865 337.727,330.410 338.208 M94.417 358.086 C 94.600 358.236,94.900 358.431,95.083 358.521 L 95.417 358.685 95.083 358.414 C 94.900 358.264,94.600 358.069,94.417 357.979 L 94.083 357.815 94.417 358.086 M180.208 389.115 C 180.369 389.157,180.631 389.157,180.792 389.115 C 180.952 389.073,180.821 389.039,180.500 389.039 C 180.179 389.039,180.048 389.073,180.208 389.115 M219.208 389.115 C 219.369 389.157,219.631 389.157,219.792 389.115 C 219.952 389.073,219.821 389.039,219.500 389.039 C 219.179 389.039,219.048 389.073,219.208 389.115 M184.294 389.451 C 184.501 389.491,184.801 389.490,184.960 389.448 C 185.120 389.406,184.950 389.374,184.583 389.375 C 184.217 389.377,184.086 389.411,184.294 389.451 M215.127 389.451 C 215.334 389.491,215.634 389.490,215.794 389.448 C 215.953 389.406,215.783 389.374,215.417 389.375 C 215.050 389.377,214.920 389.411,215.127 389.451 M192.463 389.956 C 192.855 389.991,193.455 389.990,193.796 389.954 C 194.137 389.919,193.817 389.890,193.083 389.890 C 192.350 389.891,192.071 389.920,192.463 389.956 M206.296 389.956 C 206.688 389.991,207.288 389.990,207.629 389.954 C 207.971 389.919,207.650 389.890,206.917 389.890 C 206.183 389.891,205.904 389.920,206.296 389.956 " stroke="none" fill="#8084bb" fill-rule="evenodd"></path><path id="path6" d="M192.292 10.122 C 192.681 10.157,193.319 10.157,193.708 10.122 C 194.098 10.087,193.779 10.058,193.000 10.058 C 192.221 10.058,191.902 10.087,192.292 10.122 M206.292 10.122 C 206.681 10.157,207.319 10.157,207.708 10.122 C 208.098 10.087,207.779 10.058,207.000 10.058 C 206.221 10.058,205.902 10.087,206.292 10.122 M188.544 10.286 C 188.797 10.325,189.172 10.324,189.377 10.284 C 189.582 10.244,189.375 10.213,188.917 10.214 C 188.458 10.216,188.291 10.248,188.544 10.286 M210.711 10.286 C 210.964 10.325,211.339 10.324,211.544 10.284 C 211.749 10.244,211.542 10.213,211.083 10.214 C 210.625 10.216,210.457 10.248,210.711 10.286 M185.627 10.451 C 185.834 10.491,186.134 10.490,186.294 10.448 C 186.453 10.406,186.283 10.374,185.917 10.375 C 185.550 10.377,185.420 10.411,185.627 10.451 M213.625 10.451 C 213.831 10.491,214.169 10.491,214.375 10.451 C 214.581 10.411,214.412 10.379,214.000 10.379 C 213.588 10.379,213.419 10.411,213.625 10.451 M327.333 58.885 C 327.333 58.914,327.577 59.158,327.875 59.427 L 328.417 59.917 327.927 59.375 C 327.471 58.870,327.333 58.757,327.333 58.885 M340.167 71.719 C 340.167 71.748,340.410 71.991,340.708 72.260 L 341.250 72.750 340.760 72.208 C 340.304 71.703,340.167 71.590,340.167 71.719 M193.628 84.454 C 193.928 84.491,194.378 84.490,194.628 84.452 C 194.878 84.414,194.633 84.384,194.083 84.385 C 193.533 84.386,193.328 84.417,193.628 84.454 M205.292 84.454 C 205.590 84.491,206.077 84.491,206.375 84.454 C 206.673 84.417,206.429 84.387,205.833 84.387 C 205.237 84.387,204.994 84.417,205.292 84.454 M278.917 115.500 C 279.275 115.867,279.605 116.167,279.651 116.167 C 279.697 116.167,279.441 115.867,279.083 115.500 C 278.725 115.133,278.395 114.833,278.349 114.833 C 278.303 114.833,278.559 115.133,278.917 115.500 M195.625 143.951 C 195.831 143.991,196.169 143.991,196.375 143.951 C 196.581 143.911,196.412 143.879,196.000 143.879 C 195.588 143.879,195.419 143.911,195.625 143.951 M203.458 143.951 C 203.665 143.991,204.002 143.991,204.208 143.951 C 204.415 143.911,204.246 143.879,203.833 143.879 C 203.421 143.879,203.252 143.911,203.458 143.951 M389.545 186.000 C 389.545 186.412,389.578 186.581,389.618 186.375 C 389.657 186.169,389.657 185.831,389.618 185.625 C 389.578 185.419,389.545 185.588,389.545 186.000 M389.717 188.833 C 389.717 189.338,389.748 189.544,389.786 189.292 C 389.824 189.040,389.824 188.627,389.786 188.375 C 389.748 188.123,389.717 188.329,389.717 188.833 M315.039 188.667 C 315.039 188.987,315.073 189.119,315.115 188.958 C 315.157 188.798,315.157 188.535,315.115 188.375 C 315.073 188.215,315.039 188.346,315.039 188.667 M84.385 194.083 C 84.386 194.633,84.417 194.838,84.454 194.539 C 84.491 194.239,84.490 193.789,84.452 193.539 C 84.414 193.288,84.384 193.533,84.385 194.083 M255.872 194.833 C 255.872 195.154,255.906 195.285,255.948 195.125 C 255.990 194.965,255.990 194.702,255.948 194.542 C 255.906 194.381,255.872 194.512,255.872 194.833 M256.070 199.917 C 256.070 201.750,256.094 202.523,256.124 201.634 C 256.154 200.745,256.154 199.245,256.124 198.301 C 256.095 197.356,256.070 198.083,256.070 199.917 M255.875 205.083 C 255.877 205.450,255.911 205.580,255.951 205.373 C 255.991 205.166,255.990 204.866,255.948 204.706 C 255.906 204.547,255.874 204.717,255.875 205.083 M84.381 205.917 C 84.382 206.375,84.415 206.543,84.453 206.289 C 84.491 206.036,84.490 205.661,84.451 205.456 C 84.411 205.251,84.380 205.458,84.381 205.917 M389.717 211.167 C 389.717 211.671,389.748 211.877,389.786 211.625 C 389.824 211.373,389.824 210.960,389.786 210.708 C 389.748 210.456,389.717 210.662,389.717 211.167 M315.039 211.167 C 315.039 211.487,315.073 211.619,315.115 211.458 C 315.157 211.298,315.157 211.035,315.115 210.875 C 315.073 210.715,315.039 210.846,315.039 211.167 M389.545 214.000 C 389.545 214.412,389.578 214.581,389.618 214.375 C 389.657 214.169,389.657 213.831,389.618 213.625 C 389.578 213.419,389.545 213.588,389.545 214.000 M114.667 278.219 C 114.667 278.248,114.910 278.491,115.208 278.760 L 115.750 279.250 115.260 278.708 C 114.804 278.203,114.667 278.090,114.667 278.219 M120.917 284.500 C 121.275 284.867,121.605 285.167,121.651 285.167 C 121.697 285.167,121.441 284.867,121.083 284.500 C 120.725 284.133,120.395 283.833,120.349 283.833 C 120.303 283.833,120.559 284.133,120.917 284.500 M188.375 315.115 C 188.535 315.157,188.798 315.157,188.958 315.115 C 189.119 315.073,188.987 315.039,188.667 315.039 C 188.346 315.039,188.215 315.073,188.375 315.115 M210.875 315.115 C 211.035 315.157,211.298 315.157,211.458 315.115 C 211.619 315.073,211.487 315.039,211.167 315.039 C 210.846 315.039,210.715 315.073,210.875 315.115 " stroke="none" fill="#b397b6" fill-rule="evenodd"></path><path id="path7" d="M45.833 89.038 C 45.329 89.769,44.842 90.455,44.750 90.563 C 43.757 91.732,37.992 100.634,36.371 103.500 C 36.138 103.912,35.777 104.520,35.570 104.850 C 35.116 105.575,33.735 108.032,32.630 110.083 C 30.976 113.154,26.833 121.612,26.833 121.918 C 26.833 121.974,26.533 122.648,26.167 123.417 C 25.800 124.185,25.500 124.856,25.500 124.909 C 25.500 124.961,25.355 125.322,25.177 125.710 C 25.000 126.099,24.659 126.904,24.420 127.500 C 24.181 128.096,23.916 128.733,23.831 128.917 C 22.833 131.081,20.101 138.748,18.368 144.250 C 17.449 147.167,15.748 153.450,15.165 156.083 C 14.962 157.000,14.691 158.200,14.562 158.750 C 8.587 184.346,8.587 215.654,14.562 241.250 C 14.691 241.800,14.962 243.000,15.165 243.917 C 15.743 246.524,17.443 252.815,18.364 255.750 C 19.133 258.199,19.921 260.540,21.446 264.901 C 22.002 266.492,23.511 270.397,23.835 271.083 C 23.921 271.267,24.249 272.054,24.562 272.833 C 25.393 274.896,25.631 275.449,26.264 276.779 C 26.577 277.436,26.833 278.021,26.833 278.079 C 26.833 278.388,30.966 286.827,32.630 289.917 C 33.735 291.968,35.116 294.425,35.570 295.150 C 35.777 295.480,36.138 296.087,36.371 296.500 C 37.785 299.001,42.836 306.863,44.149 308.606 C 44.296 308.801,44.529 309.127,44.667 309.330 C 45.288 310.247,49.243 315.618,49.946 316.500 C 50.055 316.637,50.566 317.275,51.080 317.917 C 51.595 318.558,52.106 319.197,52.216 319.336 C 58.291 326.996,68.547 337.554,76.500 344.335 C 77.279 344.999,78.104 345.702,78.333 345.897 C 78.709 346.217,80.012 347.272,80.662 347.784 C 80.802 347.894,81.442 348.405,82.083 348.920 C 82.725 349.434,83.362 349.944,83.500 350.053 C 84.131 350.552,88.488 353.801,89.083 354.216 C 89.450 354.472,90.222 355.018,90.798 355.430 C 94.010 357.723,100.699 362.041,103.500 363.630 C 103.912 363.864,104.700 364.329,105.250 364.663 C 105.800 364.997,106.925 365.638,107.750 366.089 C 108.575 366.539,109.550 367.079,109.917 367.288 C 111.080 367.951,119.861 372.289,121.250 372.887 C 121.983 373.202,122.996 373.652,123.500 373.887 C 124.004 374.121,124.717 374.438,125.083 374.590 C 127.014 375.393,128.772 376.112,130.417 376.771 C 131.425 377.175,132.400 377.574,132.583 377.658 C 132.767 377.742,133.592 378.048,134.417 378.337 C 135.242 378.626,136.817 379.190,137.917 379.589 C 139.017 379.989,140.554 380.502,141.333 380.729 C 142.112 380.957,143.537 381.405,144.500 381.726 C 145.462 382.047,146.962 382.495,147.833 382.722 C 148.704 382.949,149.979 383.287,150.667 383.474 C 153.938 384.364,154.581 384.521,158.333 385.355 C 165.046 386.846,168.527 387.453,176.000 388.433 C 190.305 390.311,205.419 390.481,219.833 388.927 C 228.514 387.992,235.502 386.806,244.083 384.812 C 245.590 384.462,246.467 384.236,252.083 382.750 C 253.000 382.508,254.537 382.047,255.500 381.726 C 256.462 381.405,257.887 380.957,258.667 380.729 C 259.446 380.502,260.983 379.989,262.083 379.589 C 263.183 379.190,264.758 378.626,265.583 378.337 C 266.408 378.048,267.233 377.742,267.417 377.658 C 267.600 377.574,268.575 377.175,269.583 376.771 C 271.228 376.112,272.986 375.393,274.917 374.590 C 275.283 374.438,275.996 374.121,276.500 373.887 C 277.004 373.652,278.017 373.202,278.750 372.887 C 280.244 372.244,288.959 367.933,290.250 367.199 C 290.708 366.938,291.683 366.398,292.417 365.999 C 293.150 365.600,294.387 364.889,295.167 364.419 C 295.946 363.948,296.696 363.513,296.833 363.452 C 296.971 363.390,297.356 363.170,297.688 362.962 C 298.021 362.754,299.125 362.074,300.141 361.451 C 302.540 359.981,310.014 354.981,310.482 354.532 C 310.609 354.410,310.909 354.186,311.148 354.033 C 311.528 353.792,315.821 350.596,316.500 350.050 C 316.637 349.939,317.350 349.378,318.083 348.803 C 318.817 348.228,319.454 347.718,319.500 347.670 C 319.546 347.622,319.958 347.283,320.417 346.917 C 320.875 346.550,321.433 346.100,321.657 345.917 C 322.282 345.405,327.456 340.866,328.583 339.841 C 329.822 338.714,338.587 329.949,339.841 328.583 C 341.143 327.164,344.270 323.599,345.248 322.417 C 345.703 321.867,346.115 321.379,346.163 321.333 C 346.211 321.287,346.550 320.875,346.916 320.417 C 347.755 319.368,347.800 319.312,348.867 317.988 C 349.353 317.386,349.938 316.646,350.167 316.345 C 351.484 314.614,353.953 311.313,354.167 310.997 C 354.304 310.794,354.646 310.318,354.927 309.939 C 355.208 309.560,356.145 308.200,357.009 306.917 C 357.873 305.633,358.621 304.546,358.670 304.500 C 358.838 304.344,362.912 297.773,363.630 296.500 C 363.863 296.087,364.223 295.480,364.430 295.150 C 364.833 294.507,366.690 291.180,367.956 288.833 C 369.156 286.608,372.000 280.824,372.000 280.609 C 372.000 280.530,370.788 280.305,368.250 279.913 C 365.165 279.436,362.423 278.999,361.500 278.838 C 360.395 278.646,357.716 278.241,356.000 278.008 C 355.313 277.915,354.000 277.722,353.083 277.580 C 352.167 277.438,350.592 277.207,349.583 277.066 C 348.575 276.925,347.000 276.703,346.083 276.571 C 345.167 276.439,343.517 276.217,342.417 276.077 C 341.317 275.937,339.554 275.713,338.500 275.578 C 332.421 274.801,325.412 274.005,321.667 273.667 C 320.704 273.580,319.614 273.467,319.243 273.416 C 315.715 272.930,295.977 271.522,292.484 271.506 L 291.051 271.500 289.878 272.967 C 288.247 275.006,282.828 280.974,281.145 282.584 C 277.935 285.654,274.455 288.709,271.749 290.831 C 271.108 291.334,270.494 291.822,270.385 291.915 C 270.276 292.007,269.938 292.258,269.635 292.470 C 269.150 292.811,266.196 294.963,265.750 295.301 C 265.658 295.370,265.283 295.608,264.917 295.830 C 264.550 296.051,264.212 296.278,264.167 296.334 C 264.069 296.454,259.851 299.142,259.000 299.627 C 258.679 299.810,257.929 300.242,257.333 300.587 C 255.384 301.716,251.579 303.676,249.000 304.880 C 246.042 306.260,245.128 306.667,244.983 306.667 C 244.898 306.667,244.699 306.741,244.539 306.831 C 244.380 306.921,243.575 307.262,242.750 307.589 C 241.925 307.916,241.100 308.248,240.917 308.328 C 240.733 308.407,240.358 308.548,240.083 308.641 C 239.808 308.733,239.171 308.969,238.667 309.164 C 235.674 310.323,229.080 312.218,225.083 313.068 C 224.533 313.185,223.933 313.329,223.748 313.389 C 223.344 313.520,218.762 314.265,216.333 314.595 C 205.057 316.129,197.874 316.251,187.417 315.084 C 183.936 314.695,177.049 313.652,175.833 313.329 C 175.512 313.244,173.825 312.830,172.083 312.409 C 170.342 311.988,168.579 311.539,168.167 311.411 C 162.224 309.569,160.085 308.813,155.833 307.055 C 152.632 305.732,147.302 303.200,144.833 301.830 C 144.146 301.449,143.096 300.869,142.500 300.542 C 138.102 298.131,129.886 292.446,126.262 289.307 C 125.980 289.063,125.368 288.538,124.902 288.140 C 115.506 280.125,106.139 269.117,100.743 259.750 C 100.637 259.567,100.054 258.573,99.448 257.542 C 98.301 255.592,96.195 251.537,95.138 249.244 C 94.802 248.514,94.232 247.279,93.872 246.500 C 93.512 245.721,93.121 244.783,93.004 244.417 C 92.886 244.050,92.734 243.675,92.665 243.583 C 92.443 243.287,90.714 238.653,89.866 236.083 C 88.694 232.529,88.548 232.047,88.091 230.218 C 87.866 229.319,87.525 227.983,87.332 227.250 C 86.833 225.351,86.227 222.320,85.830 219.744 C 85.731 219.105,85.539 217.871,85.402 217.000 C 85.128 215.252,84.774 212.316,84.469 209.250 C 84.207 206.623,84.204 193.430,84.464 190.750 C 85.116 184.035,86.052 177.985,87.166 173.293 L 87.709 171.003 87.255 169.210 C 86.029 164.371,84.807 160.233,83.056 155.000 C 81.574 150.567,81.258 149.704,79.617 145.583 C 79.070 144.208,78.452 142.633,78.244 142.083 C 78.035 141.533,77.640 140.596,77.364 140.000 C 77.088 139.404,76.530 138.167,76.124 137.250 C 73.938 132.319,69.947 124.290,67.507 119.917 C 65.848 116.943,63.582 113.019,61.412 109.362 C 59.873 106.767,55.232 99.661,51.815 94.667 C 50.252 92.383,46.991 87.846,46.857 87.770 C 46.798 87.736,46.337 88.307,45.833 89.038 " stroke="none" fill="#347b7c" fill-rule="evenodd"></path><path id="path8" d="M69.328 61.958 L 68.417 62.917 69.375 62.006 C 70.265 61.159,70.410 61.000,70.286 61.000 C 70.260 61.000,69.829 61.431,69.328 61.958 M61.745 69.542 L 60.750 70.583 61.792 69.589 C 62.759 68.664,62.910 68.500,62.786 68.500 C 62.761 68.500,62.292 68.969,61.745 69.542 M115.409 120.875 L 114.750 121.583 115.458 120.925 C 116.117 120.312,116.243 120.167,116.117 120.167 C 116.090 120.167,115.771 120.485,115.409 120.875 M143.879 196.167 C 143.879 196.579,143.911 196.748,143.951 196.542 C 143.991 196.335,143.991 195.998,143.951 195.792 C 143.911 195.585,143.879 195.754,143.879 196.167 M143.879 203.833 C 143.879 204.246,143.911 204.415,143.951 204.208 C 143.991 204.002,143.991 203.665,143.951 203.458 C 143.911 203.252,143.879 203.421,143.879 203.833 M158.667 238.083 C 158.978 238.404,159.270 238.667,159.315 238.667 C 159.361 238.667,159.144 238.404,158.833 238.083 C 158.522 237.762,158.230 237.500,158.185 237.500 C 158.139 237.500,158.356 237.762,158.667 238.083 M239.578 239.708 L 238.583 240.750 239.625 239.755 C 240.593 238.831,240.743 238.667,240.620 238.667 C 240.594 238.667,240.125 239.135,239.578 239.708 M161.750 241.167 C 162.108 241.533,162.438 241.833,162.484 241.833 C 162.530 241.833,162.275 241.533,161.917 241.167 C 161.559 240.800,161.228 240.500,161.182 240.500 C 161.137 240.500,161.392 240.800,161.750 241.167 M194.627 255.951 C 194.834 255.991,195.134 255.990,195.294 255.948 C 195.453 255.906,195.283 255.874,194.917 255.875 C 194.550 255.877,194.420 255.911,194.627 255.951 M204.708 255.948 C 204.869 255.990,205.131 255.990,205.292 255.948 C 205.452 255.906,205.321 255.872,205.000 255.872 C 204.679 255.872,204.548 255.906,204.708 255.948 M198.375 256.124 C 199.269 256.154,200.731 256.154,201.625 256.124 C 202.519 256.094,201.787 256.070,200.000 256.070 C 198.213 256.070,197.481 256.094,198.375 256.124 " stroke="none" fill="#9474d4" fill-rule="evenodd"></path></g></svg>